<svg width="32" height="32" viewBox="0 0 32 32" fill="none" xmlns="http://www.w3.org/2000/svg">
  <rect width="32" height="32" rx="6" fill="#3B82F6"/>
  <path d="M26 16C26 16 22 14.6667 20.6667 14.6667L15 10.6667H12C12 10.6667 12.6667 12 12.6667 12.6667L17.3333 15.3333L12.6667 15.3333C12.6667 15.3333 11.3333 14.6667 10 14.6667H8C8 14.6667 8.66667 15.3333 9.33333 16L12.6667 17.3333L9.33333 18.6667C8.66667 19.3333 8 20 8 20H10C11.3333 20 12.6667 19.3333 12.6667 19.3333L17.3333 19.3333L12.6667 22C12.6667 22.6667 12 24 12 24H15L20.6667 20C22 20 26 18.6667 26 18.6667C26.6667 18 26.6667 16.6667 26 16Z" fill="white"/>
</svg>