<svg width="192" height="192" viewBox="0 0 192 192" fill="none" xmlns="http://www.w3.org/2000/svg">
  <rect width="192" height="192" rx="32" fill="#3B82F6"/>
  <g filter="url(#filter0_d)">
    <path d="M152 96C152 96 128 88 120 88L84 64H68C68 64 72 72 72 76L100 92L72 92C72 92 64 88 56 88H44C44 88 48 92 52 96L72 104L52 112C48 116 44 120 44 120H56C64 120 72 116 72 116L100 116L72 132C72 136 68 144 68 144H84L120 120C128 120 152 112 152 112C156 108 156 100 152 96Z" fill="white"/>
  </g>
  <defs>
    <filter id="filter0_d" x="40" y="62" width="118" height="88" filterUnits="userSpaceOnUse" color-interpolation-filters="sRGB">
      <feFlood flood-opacity="0" result="BackgroundImageFix"/>
      <feColorMatrix in="SourceAlpha" type="matrix" values="0 0 0 0 0 0 0 0 0 0 0 0 0 0 0 0 0 0 127 0"/>
      <feOffset dy="2"/>
      <feGaussianBlur stdDeviation="2"/>
      <feColorMatrix type="matrix" values="0 0 0 0 0 0 0 0 0 0 0 0 0 0 0 0 0 0 0.25 0"/>
      <feBlend mode="normal" in2="BackgroundImageFix" result="effect1_dropShadow"/>
      <feBlend mode="normal" in="SourceGraphic" in2="effect1_dropShadow" result="shape"/>
    </filter>
  </defs>
</svg>